Coordinates
version=1
nRows=24
nColumns=24
inDegrees=yes

Units are S.I. units (second, meters, Newtons, ...)
Angles are in degrees.

endheader
time	pelvis_tilt	pelvis_list	pelvis_rotation	pelvis_tx	pelvis_ty	pelvis_tz	hip_flexion_r	hip_adduction_r	hip_rotation_r	knee_angle_r	ankle_angle_r	subtalar_angle_r	mtp_angle_r	hip_flexion_l	hip_adduction_l	hip_rotation_l	knee_angle_l	ankle_angle_l	subtalar_angle_l	mtp_angle_l	lumbar_extension	lumbar_bending	lumbar_rotation
      1.02866667	      1.99851922	     -4.70758840	     -4.69708602	      0.41748357	      1.01578795	      0.36377130	      8.18621484	      8.78295308	      2.36912941	    -16.66941374	     -1.30262011	    -18.49684627	     -2.78967335	     19.23300460	     -9.65291293	     -9.25254466	    -69.54572129	      4.15566821	    -15.38710004	     -9.89902123	    -13.63232737	      6.38008165	      5.75277790
      1.03283333	      2.20876094	     -4.59840559	     -4.95861201	      0.42285903	      1.01706702	      0.36452724	      7.40044964	      8.67288400	      2.67393847	    -16.25730680	     -1.25149226	    -18.44706236	     -2.75832148	     19.42178455	     -9.59404607	     -9.49252267	    -68.65160382	      4.26249760	    -15.47449190	     -9.95913724	    -13.84014691	      6.12858046	      5.97839653
      1.03700000	      2.40125442	     -4.48948280	     -5.22479115	      0.42821355	      1.01827671	      0.36529741	      6.63937575	      8.55974666	      2.98711713	    -15.85213671	     -1.20170409	    -18.41243928	     -2.72962473	     19.61329737	     -9.54347431	     -9.74641847	    -67.71236416	      4.36571740	    -15.57797628	    -10.02314180	    -14.02841699	      5.87630748	      6.19650172
      1.04116667	      2.59886574	     -4.38721560	     -5.48414639	      0.43356407	      1.01945716	      0.36605519	      5.86979181	      8.44634369	      3.30002647	    -15.43634857	     -1.16344861	    -18.39244974	     -2.70371799	     19.78060121	     -9.50186436	    -10.00498212	    -66.72493136	      4.47269067	    -15.68596601	    -10.09218858	    -14.21941500	      5.63093978	      6.41762790
      1.04533333	      2.76232004	     -4.27339174	     -5.74379703	      0.43887843	      1.02053497	      0.36681990	      5.14873057	      8.31940373	      3.62186224	    -15.03615437	     -1.11540591	    -18.37294673	     -2.68242228	     19.97317588	     -9.45206760	    -10.26812211	    -65.69513160	      4.56241676	    -15.80657766	    -10.16120205	    -14.37859726	      5.35746321	      6.61389506
      1.04950000	      2.96819024	     -4.17683851	     -6.00996220	      0.44419826	      1.02164750	      0.36757835	      4.37734121	      8.19854417	      3.94519885	    -14.62622514	     -1.08100454	    -18.37205407	     -2.66407916	     20.08959226	     -9.42493600	    -10.55755090	    -64.61011157	      4.66445361	    -15.92466011	    -10.24049342	    -14.57732678	      5.12000207	      6.84141331
      1.05366667	      3.15241825	     -4.08796390	     -6.27932299	      0.44946019	      1.02266076	      0.36835989	      3.63722561	      8.08620497	      4.30227924	    -14.22680585	     -1.03240502	    -18.36114110	     -2.64662333	     20.21898890	     -9.41402071	    -10.85210196	    -63.49697576	      4.78748916	    -16.05358999	    -10.33865734	    -14.77255379	      4.87683132	      7.06636302
      1.05783333	      3.33414729	     -3.99891887	     -6.55639799	      0.45473873	      1.02363839	      0.36914663	      2.90532282	      7.96561918	      4.64278785	    -13.83602217	     -0.99433531	    -18.37168285	     -2.63340226	     20.32263063	     -9.40991583	    -11.17219254	    -62.32715546	      4.88637813	    -16.17623833	    -10.45688060	    -14.94538347	      4.64620196	      7.28999170
      1.06200000	      3.47524654	     -3.91062855	     -6.81865229	      0.45999858	      1.02449458	      0.36990219	      2.22578015	      7.84381743	      4.97559561	    -13.45653227	     -0.94961866	    -18.38373476	     -2.62630607	     20.46220381	     -9.40508815	    -11.47886506	    -61.12455208	      4.96915031	    -16.31123194	    -10.58253992	    -15.07646254	      4.41142866	      7.48877970
      1.06616667	      3.55048533	     -3.81286169	     -7.05101560	      0.46525494	      1.02519029	      0.37058897	      1.63418743	      7.71334548	      5.26623126	    -13.10637853	     -0.87519565	    -18.43918234	     -2.62564981	     20.67087333	     -9.38203478	    -11.75364020	    -59.88477052	      4.99019998	    -16.47359514	    -10.68069680	    -15.12378002	      4.18265460	      7.61420460
      1.07033333	      3.70257698	     -3.73297040	     -7.31736481	      0.47046348	      1.02597265	      0.37135156	      0.95050085	      7.58951581	      5.62871473	    -12.73288585	     -0.83794514	    -18.45492110	     -2.62893025	     20.75661752	     -9.38993300	    -12.08150997	    -58.59286676	      5.06111235	    -16.59859381	    -10.80417824	    -15.28301866	      3.94868380	      7.82792577
      1.07450000	      3.85753454	     -3.68669897	     -7.58991939	      0.47567167	      1.02669503	      0.37213670	      0.26634153	      7.49546549	      5.97818365	    -12.36979129	     -0.80371561	    -18.47775659	     -2.64085881	     20.81756712	     -9.44751836	    -12.43536528	    -57.27598797	      5.14618709	    -16.70490130	    -10.97502167	    -15.43738154	      3.75533437	      8.06907623
      1.07866667	      3.89176241	     -3.61851207	     -7.81087812	      0.48088835	      1.02715732	      0.37277249	     -0.26164345	      7.38482971	      6.24988426	    -12.05236113	     -0.71311841	    -18.53536214	     -2.65182846	     21.02205727	     -9.46186546	    -12.72423484	    -55.93216713	      5.13234118	    -16.89835816	    -11.08864484	    -15.43924328	      3.56833633	      8.15750480
      1.08283333	      4.01239341	     -3.56332855	     -8.06721087	      0.48604838	      1.02772674	      0.37351534	     -0.89102972	      7.27625982	      6.60782974	    -11.71594141	     -0.64775037	    -18.56559076	     -2.66948755	     21.09003805	     -9.49951381	    -13.06552692	    -54.53081056	      5.14989107	    -17.02937700	    -11.23659018	    -15.57030109	      3.36778631	      8.35717326
      1.08700000	      4.10894981	     -3.54096339	     -8.33013669	      0.49124160	      1.02820513	      0.37426534	     -1.49554285	      7.19752565	      6.93700915	    -11.38221385	     -0.61262847	    -18.57881028	     -2.69763327	     21.16185833	     -9.58839918	    -13.43719117	    -53.11001940	      5.18280663	    -17.13221744	    -11.43464177	    -15.66256256	      3.20826630	      8.58074608
      1.09116667	      4.10894740	     -3.51505131	     -8.53465970	      0.49640194	      1.02843728	      0.37486836	     -1.97276701	      7.12668473	      7.21338748	    -11.09443313	     -0.50738263	    -18.63803174	     -2.71926806	     21.35817848	     -9.64840674	    -13.72252460	    -51.67930631	      5.14929022	    -17.31011114	    -11.57518264	    -15.65009418	      3.07671656	      8.66633746
      1.09533333	      4.20140680	     -3.50767221	     -8.78432532	      0.50158140	      1.02880650	      0.37558373	     -2.56196509	      7.05407317	      7.52376602	    -10.78302152	     -0.45484514	    -18.64546724	     -2.75417183	     21.39791200	     -9.74771840	    -14.10338451	    -50.18531873	      5.12872929	    -17.39976987	    -11.77551556	    -15.73591650	      2.93604758	      8.87649501
      1.09950000	      4.22472432	     -3.50403022	     -9.01245705	      0.50675997	      1.02899656	      0.37623949	     -3.06733394	      6.99224747	      7.80949016	    -10.49219597	     -0.37535306	    -18.67342960	     -2.79313698	     21.51142432	     -9.84729517	    -14.46113780	    -48.67762075	      5.08159177	    -17.51575851	    -11.98894119	    -15.75661365	      2.81781017	      9.03523196
      1.10366667	      4.11754887	     -3.52574514	     -9.13146582	      0.51197580	      1.02886684	      0.37660385	     -3.42478192	      6.97149556	      7.95673568	    -10.21627615	     -0.31394557	    -18.70716988	     -2.80505197	     21.80705486	     -9.93223681	    -14.66811947	    -47.19640849	      5.04202116	    -17.64370499	    -12.05604802	    -15.62568495	      2.79582365	      9.03709793
      1.10783333	      4.26912823	     -3.54631612	     -9.41775629	      0.51709649	      1.02917946	      0.37740159	     -4.06263666	      6.90800079	      8.31706224	     -9.94788064	     -0.17358284	    -18.71987065	     -2.84523932	     21.70572808	    -10.07099658	    -15.14888969	    -45.59358978	      4.96384795	    -17.72441704	    -12.27866259	    -15.79652828	      2.65200096	      9.29946861
      1.11200000	      4.12549329	     -3.59875757	     -9.52506377	      0.52232631	      1.02888668	      0.37772763	     -4.37864775	      6.92069796	      8.44755519	     -9.68675561	     -0.10970270	    -18.74033870	     -2.85612385	     22.01157644	    -10.18875927	    -15.36229243	    -44.06988461	      4.89440573	    -17.82508410	    -12.34222506	    -15.63273254	      2.67816610	      9.28900259
      1.11616667	      4.23150343	     -3.64654635	     -9.78933592	      0.52745897	      1.02900494	      0.37845068	     -4.96046987	      6.88407578	      8.77210853	     -9.44239173	      0.04972248	    -18.74483408	     -2.89345869	     21.93757204	    -10.34804600	    -15.83946962	    -42.43452437	      4.79910820	    -17.87782151	    -12.55810071	    -15.75787416	      2.57958334	      9.52420366
      1.12033333	      4.07614013	     -3.72767273	     -9.87870789	      0.53270589	      1.02857910	      0.37871089	     -5.26069905	      6.92312899	      8.87163524	     -9.19975389	      0.12505024	    -18.74797976	     -2.90229211	     22.22833102	    -10.48708790	    -16.05847499	    -40.87301766	      4.71833666	    -17.91822520	    -12.61769079	    -15.58435877	      2.64594891	      9.50798292
      1.12450000	      4.11112185	     -3.79968612	    -10.11451125	      0.53786984	      1.02846660	      0.37932307	     -5.75886125	      6.91417545	      9.14775922	     -8.98199596	      0.30950825	    -18.71948419	     -2.92989141	     22.21679237	    -10.66185601	    -16.52047306	    -39.21854361	      4.61161413	    -17.93393344	    -12.81394673	    -15.63685131	      2.60578746	      9.70565263
